<svg xmlns="http://www.w3.org/2000/svg" viewBox="0 0 460 118" role="img" aria-labelledby="title desc">
  <title id="title">Nong Dae Bloom Udon 2026</title>
  <desc id="desc">Custom transparent wordmark logo for the student expo website.</desc>
  <defs>
    <linearGradient id="markBg" x1="8" y1="12" x2="96" y2="98" gradientUnits="userSpaceOnUse">
      <stop offset="0" stop-color="#0d4a34"/>
      <stop offset=".58" stop-color="#1c8a57"/>
      <stop offset="1" stop-color="#0d7691"/>
    </linearGradient>
    <linearGradient id="goldPetal" x1="51" y1="13" x2="51" y2="70" gradientUnits="userSpaceOnUse">
      <stop offset="0" stop-color="#ffe08b"/>
      <stop offset="1" stop-color="#d5a642"/>
    </linearGradient>
  </defs>
  <g transform="translate(8 9)">
    <circle cx="50" cy="50" r="48" fill="url(#markBg)"/>
    <circle cx="50" cy="50" r="41" fill="none" stroke="#ffffff" stroke-opacity=".22" stroke-width="2"/>
    <path d="M50 13c11 14 16 25 16 35 0 12-6 21-16 29-10-8-16-17-16-29 0-10 5-21 16-35Z" fill="url(#goldPetal)"/>
    <path d="M27 35c16 4 27 11 32 21 5 11 3 22-4 32-13-3-23-10-29-21-5-10-5-20 1-32Z" fill="#78c98c"/>
    <path d="M73 35c6 12 6 22 1 32-6 11-16 18-29 21-7-10-9-21-4-32 5-10 16-17 32-21Z" fill="#77d1df"/>
    <path d="M25 66c15 12 35 12 50 0" fill="none" stroke="#ffffff" stroke-width="5" stroke-linecap="round"/>
    <path d="M31 78c12 7 26 7 38 0" fill="none" stroke="#f2c766" stroke-width="4" stroke-linecap="round"/>
  </g>
  <g transform="translate(126 29)">
    <text x="0" y="25" fill="#0d4a34" font-family="Kanit, Prompt, Arial, sans-serif" font-size="30" font-weight="800">Nong Dae Bloom</text>
    <text x="0" y="52" fill="#d5a642" font-family="Prompt, Arial, sans-serif" font-size="17" font-weight="900">UDON THANI EXPO 2026</text>
    <path d="M0 65h270" stroke="#0d4a34" stroke-opacity=".18" stroke-width="2" stroke-linecap="round"/>
    <text x="0" y="87" fill="#4f675d" font-family="Prompt, Arial, sans-serif" font-size="15" font-weight="700">People | Water | Plants</text>
  </g>
</svg>
