<svg width="303" height="140" viewBox="0 0 303 140" fill="none" xmlns="http://www.w3.org/2000/svg">
<path d="M46.9783 17.4455C48.7786 20.0556 50.1141 22.8508 50.9931 25.8229C51.8637 28.795 52.3032 31.7756 52.3032 34.7729C52.3032 37.7703 51.8891 40.7255 51.0692 43.6471C50.2493 46.5687 49.0068 49.2713 47.3671 51.7551C45.7189 54.2389 43.6903 56.4448 41.2729 58.3644C38.8555 60.2841 36.0747 61.7575 32.9389 62.7847C30.9864 63.5004 28.7719 64.0139 26.3038 64.3255C23.8357 64.637 21.0549 64.7885 17.9698 64.7885H0.921387V64.5612C2.00329 64.2497 2.84852 63.7277 3.46554 62.9868C4.08257 62.2458 4.54745 61.3702 4.85173 60.3767C5.16447 59.3748 5.36732 58.2887 5.46875 57.1099C5.57018 55.9312 5.62089 54.7777 5.62089 53.6495V16.1405C5.62089 14.9617 5.57018 13.7998 5.46875 12.6464C5.36732 11.4929 5.15601 10.432 4.85173 9.45537C4.54745 8.4787 4.08257 7.61149 3.46554 6.84531C2.84852 6.07914 2.00329 5.51503 0.921387 5.15299V4.92566H17.9698C21.1056 4.92566 24.0555 5.12773 26.8025 5.54029C29.5495 5.95284 32.1359 6.64324 34.5533 7.61149C36.9707 8.58816 39.219 9.86793 41.3067 11.4508C43.386 13.0421 45.2793 15.0375 46.9783 17.4455ZM34.0208 60.7219C36.286 59.5432 38.1963 58.0108 39.7684 56.108C41.3405 54.2136 42.6337 52.1003 43.6649 49.7681C44.6961 47.4359 45.4399 44.9942 45.9048 42.4263C46.3697 39.8667 46.5979 37.3493 46.5979 34.8908C46.5979 32.4323 46.3697 29.8475 45.9048 27.2795C45.4399 24.72 44.6961 22.2867 43.6649 19.9798C42.6337 17.6728 41.3405 15.5764 39.7684 13.6736C38.1963 11.7792 36.286 10.2384 34.0208 9.05965C31.6541 7.77988 29.1438 6.93793 26.4982 6.52537C23.8442 6.11281 21.2155 5.86023 18.5868 5.75919H11.3347V63.9382H18.5868C21.207 63.8371 23.168 63.694 24.4527 63.5172C25.7375 63.3404 26.5827 63.1973 26.9969 63.0962C28.3324 62.8436 29.5833 62.5068 30.7413 62.0943C31.8993 61.6817 32.9896 61.2271 34.0208 60.7135V60.7219Z" fill="#1D1B20"/>
<path d="M71.4389 64.561V64.7883H56.1655V64.561C57.2474 64.2495 58.1096 63.6938 58.752 62.8687C59.3943 62.052 59.8677 61.1006 60.1804 60.0229C60.4931 58.9452 60.6791 57.8422 60.7636 56.714C60.8397 55.5858 60.8819 54.5586 60.8819 53.6409V33.9644C60.8819 33.0467 60.8397 32.0195 60.7636 30.8913C60.6875 29.7631 60.4762 28.677 60.1466 27.6245C59.8085 26.5721 59.3352 25.6375 58.7181 24.8208C58.1011 24.0041 57.2559 23.4148 56.174 23.0527V22.8254H66.6634V53.6409C66.6634 54.567 66.7056 55.6026 66.7817 56.7561C66.8578 57.9096 67.0522 59.0125 67.3564 60.0566C67.6692 61.109 68.1425 62.0436 68.7849 62.8603C69.4273 63.677 70.3148 64.2411 71.4474 64.5526L71.4389 64.561ZM62.2597 17.9842C61.1778 17.9842 60.2565 17.5884 59.4789 16.7886C58.7097 15.9971 58.3209 15.0626 58.3209 13.9849C58.3209 12.9072 58.7097 11.9137 59.4789 11.1391C60.248 10.3729 61.1778 9.9856 62.2597 9.9856C63.3416 9.9856 64.339 10.3729 65.1166 11.1391C65.8857 11.9052 66.2745 12.8567 66.2745 13.9849C66.2745 15.1131 65.8857 15.9971 65.1166 16.7886C64.3474 17.58 63.3923 17.9842 62.2597 17.9842Z" fill="#1D1B20"/>
<path d="M114.647 22.7495V22.9768C113.464 23.3894 112.374 24.1977 111.368 25.4017C110.362 26.6057 109.449 27.9359 108.629 29.4009C107.81 30.8575 107.1 32.3478 106.508 33.8549C105.916 35.3704 105.418 36.6586 105.003 37.7363L95.2071 64.7882H94.6661L79.9252 31.0512C79.6209 30.3355 79.2406 29.5525 78.8095 28.7105C78.37 27.8686 77.8544 27.0435 77.2627 26.252C76.6711 25.4606 76.0287 24.7534 75.3356 24.1387C74.6425 23.5241 73.8564 23.1368 72.9858 22.9853V22.7579H88.648V22.9095C87.152 23.9367 86.2814 25.3848 86.0278 27.254C85.7658 29.1231 86.3067 31.6742 87.6507 34.8989L97.2948 56.3434L104.006 37.5932C104.775 35.6482 105.164 33.6696 105.164 31.6742C105.215 30.4955 105.122 29.4599 104.893 28.559C104.665 27.6665 104.319 26.833 103.854 26.0584C102.873 24.4755 101.69 23.4483 100.304 22.9853V22.7579H114.656L114.647 22.7495Z" fill="#1D1B20"/>
<path d="M187.177 26.1342L185.402 30.3608C185.09 31.127 184.811 31.8174 184.557 32.432C184.295 32.9961 184.092 33.4928 183.94 33.9307C183.788 34.3685 183.678 34.5874 183.627 34.5874C183.475 33.3581 183.112 32.1289 182.545 30.8996C181.979 29.6704 181.295 28.559 180.5 27.5571C179.706 26.5552 178.801 25.7385 177.804 25.0986C176.798 24.4587 175.784 24.1387 174.752 24.1387C174.135 24.1387 173.442 24.265 172.673 24.526C172.572 24.526 172.411 24.5766 172.208 24.6776C171.896 24.7786 171.718 24.8291 171.667 24.8291C171.566 24.9302 171.405 25.0312 171.202 25.1407C169.968 25.8563 168.954 26.7825 168.151 27.9107C167.357 29.0389 166.647 30.2176 166.03 31.4469C166.03 31.4974 166.004 31.5479 165.954 31.5985C165.235 33.1897 164.593 34.8147 164.026 36.4818C163.46 38.1488 162.894 39.7991 162.327 41.4409C162.023 42.4176 161.592 43.5963 161.051 44.9771C160.51 46.3579 159.826 47.8987 159.006 49.591C158.904 49.7425 158.803 49.9278 158.693 50.1298C157.51 52.5378 156.225 54.668 154.839 56.5119C153.452 58.3557 151.88 59.8965 150.131 61.1258C148.381 62.355 146.429 63.2896 144.265 63.9295C142.101 64.5693 139.633 64.8893 136.861 64.8893C133.623 64.8893 130.817 64.3504 128.45 63.2727C126.084 62.195 123.92 60.3512 121.967 57.7411C120.471 55.8972 119.322 53.8176 118.494 51.5191C117.674 49.2121 117.234 46.8546 117.183 44.4467C117.082 41.2725 117.572 38.2499 118.646 35.3788C119.364 33.4339 120.294 31.6406 121.427 29.9987C122.559 28.3569 123.886 26.934 125.399 25.73C126.912 24.526 128.603 23.5746 130.454 22.8842C132.305 22.1938 134.308 21.8486 136.472 21.8486C137.909 21.8486 139.438 22.0254 141.061 22.3875C142.684 22.7495 144.079 23.3389 145.262 24.1556C147.367 25.5869 148.838 27.4897 149.657 29.8388C150.477 32.1962 150.452 34.5284 149.581 36.8354C148.761 38.8813 147.358 40.6915 145.372 42.2576C143.394 43.8236 141.18 45.1623 138.737 46.2905C136.294 47.4188 133.775 48.3449 131.172 49.0606C128.577 49.7762 126.219 50.2898 124.114 50.6013C124.579 52.3947 125.205 54.0702 126.008 55.6362C126.802 57.2023 127.791 58.5578 128.974 59.7113C130.158 60.8647 131.536 61.7741 133.099 62.4392C134.671 63.1043 136.455 63.4411 138.458 63.4411C141.957 63.4411 145.135 62.5487 147.984 60.7553C150.841 58.9619 153.241 56.6802 155.202 53.9186L155.354 53.7671C156.073 52.7904 156.715 51.7969 157.281 50.7697C157.848 49.7425 158.414 48.5891 158.98 47.3093V34.0149C158.98 33.0971 158.93 32.0531 158.828 30.8996C158.727 29.7462 158.515 28.66 158.211 27.6329C157.898 26.6057 157.425 25.6711 156.783 24.8291C156.14 23.9872 155.278 23.4062 154.196 23.1031V22.8758H164.686V31.8679C164.939 31.0007 165.396 29.9819 166.038 28.8284C166.68 27.675 167.34 26.7656 168.007 26.1005C169.191 24.6692 170.577 23.6167 172.174 22.9516C173.772 22.2864 175.412 21.9497 177.111 21.9497C178.962 21.9497 180.762 22.3201 182.512 23.061C184.261 23.802 185.8 24.846 187.144 26.1763L187.177 26.1342ZM123.134 40.8852C123.083 42.3755 123.117 43.8741 123.252 45.3812C123.379 46.8883 123.599 48.3617 123.912 49.8015C124.064 49.751 124.224 49.7257 124.376 49.7257C124.529 49.7257 124.714 49.7004 124.917 49.6499C126.819 49.3384 128.543 48.968 130.09 48.5386C131.637 48.1007 132.787 47.7303 133.564 47.4272C136.497 46.1474 138.991 44.4467 141.044 42.3165C143.098 40.1864 144.468 37.509 145.135 34.2843C145.389 32.8024 145.49 31.2196 145.44 29.5609C145.389 27.8939 144.848 26.4457 143.817 25.2164C143.048 24.3492 142.093 23.7346 140.96 23.3726C139.827 23.0189 138.695 22.8337 137.562 22.8337C134.629 22.9348 132.229 23.6167 130.352 24.8712C128.476 26.1258 126.87 28.1128 125.526 30.8239C124.807 32.4151 124.25 34.0485 123.869 35.7409C123.48 37.4332 123.235 39.1508 123.134 40.8936V40.8852ZM169.504 64.5609V64.7882H154.23V64.5609C155.878 64.1484 157.112 62.9949 157.932 61.1005C158.651 59.1051 159.014 56.6213 159.014 53.6492V51.8053C159.116 51.6033 159.217 51.4096 159.318 51.2328C159.42 51.056 159.521 50.8371 159.631 50.5761C159.733 50.374 159.809 50.1888 159.859 50.0372L159.935 49.9615C160.705 48.3702 161.415 46.7705 162.057 45.1539C162.699 43.5374 163.274 41.8871 163.79 40.1948C163.942 39.7822 164.094 39.3613 164.255 38.9234C164.407 38.4856 164.567 38.0394 164.719 37.5763V53.6408C164.719 54.5669 164.762 55.6025 164.838 56.756C164.914 57.9095 165.108 59.0125 165.413 60.0565C165.725 61.1089 166.199 62.0435 166.841 62.8602C167.483 63.6769 168.371 64.241 169.504 64.5525V64.5609Z" fill="#1D1B20"/>
<path d="M208.316 40.6576C209.804 41.4238 211.283 42.2574 212.754 43.1582C214.216 44.0591 215.492 45.0947 216.574 46.2735C217.656 47.4522 218.468 48.7825 219.009 50.2728C219.55 51.763 219.668 53.4469 219.355 55.3497C219.042 56.941 218.417 58.3218 217.462 59.5006C216.507 60.6793 215.383 61.6644 214.064 62.4558C212.754 63.2473 211.325 63.8366 209.779 64.2239C208.232 64.6112 206.719 64.7965 205.223 64.7965C202.29 64.7965 199.534 64.3502 196.965 63.4493C194.395 62.5569 192.105 61.3613 190.102 59.8794L192.417 52.8828C193.035 54.1121 193.829 55.3834 194.81 56.6884C195.79 57.9935 196.906 59.189 198.165 60.2667C199.425 61.3444 200.785 62.2285 202.256 62.9189C203.727 63.6093 205.223 63.9545 206.77 63.9545C208.156 63.9545 209.441 63.6598 210.624 63.0704C211.807 62.4811 212.754 61.5718 213.481 60.3425C214.512 58.6502 214.816 57.0252 214.411 55.4592C213.996 53.8932 213.21 52.4534 212.061 51.1147C210.903 49.7844 209.567 48.6057 208.046 47.5785C206.524 46.5513 205.155 45.7599 203.921 45.1958C202.687 44.6317 201.436 43.9918 200.177 43.2761C198.917 42.5605 197.759 41.7522 196.703 40.8513C195.646 39.9588 194.75 38.9316 194.007 37.7782C193.263 36.6247 192.756 35.3281 192.502 33.8968C192.24 32.5665 192.282 31.2362 192.62 29.8975C192.958 28.5672 193.508 27.3632 194.277 26.2855C195.46 24.7447 196.965 23.6839 198.791 23.0945C200.616 22.5051 202.484 22.2104 204.386 22.2104C206.803 22.2104 209.077 22.623 211.216 23.4397C213.346 24.2564 215.264 25.5446 216.963 27.279C216.498 28.3062 216.025 29.3418 215.535 30.3942C215.044 31.4467 214.571 32.4823 214.106 33.5095C213.743 32.2802 213.219 31.0594 212.526 29.8554C211.833 28.6514 210.996 27.5653 210.015 26.5886C209.035 25.6119 207.936 24.8373 206.694 24.248C205.459 23.6586 204.149 23.3639 202.755 23.3639C202.036 23.3639 201.352 23.4397 200.709 23.5913C200.067 23.7428 199.433 24.0291 198.816 24.4332C197.633 25.2499 196.872 26.3444 196.542 27.7C196.204 29.0555 196.272 30.4027 196.737 31.7329C197.303 33.1137 198.19 34.3093 199.399 35.3028C200.608 36.3047 201.833 37.1635 203.067 37.8792C203.938 38.3928 204.817 38.8643 205.688 39.3021C206.558 39.7399 207.437 40.1862 208.308 40.6492L208.316 40.6576Z" fill="#1D1B20"/>
<path d="M238.635 64.561V64.7883H223.362V64.561C224.444 64.2495 225.306 63.6938 225.948 62.8687C226.591 62.052 227.064 61.1006 227.377 60.0229C227.689 58.9452 227.875 57.8422 227.951 56.714C228.028 55.5858 228.07 54.5586 228.07 53.6408V33.9644C228.07 33.0467 228.036 32.0195 227.951 30.8913C227.875 29.7631 227.673 28.6769 227.334 27.6245C226.996 26.572 226.523 25.6375 225.906 24.8208C225.289 24.0041 224.444 23.4147 223.362 23.0527V22.8254H233.851V53.6408C233.851 54.567 233.893 55.6026 233.97 56.7561C234.046 57.9096 234.24 59.0125 234.544 60.0565C234.857 61.109 235.33 62.0435 235.973 62.8602C236.615 63.6769 237.503 64.241 238.635 64.5526V64.561ZM259.622 22.7496V23.5915H251.06V55.6026C251.06 56.394 251.111 57.2023 251.212 58.0274C251.263 58.44 251.381 58.8862 251.559 59.3745C251.736 59.8629 252.032 60.2081 252.446 60.4102C252.861 60.6627 253.232 60.7806 253.562 60.7554C253.9 60.7301 254.111 60.688 254.221 60.6375C254.838 60.5364 255.354 60.3091 255.768 59.9471C256.182 59.5935 256.512 59.2567 256.774 58.9452C257.137 58.5915 257.416 58.2042 257.619 57.7917H258.008C257.805 58.5579 257.492 59.3577 257.078 60.1744C256.664 60.9911 256.191 61.7489 255.65 62.4393C255.109 63.1297 254.483 63.6938 253.756 64.1316C253.038 64.5694 252.235 64.7883 251.364 64.7883C250.232 64.7883 249.285 64.5357 248.508 64.0221C247.738 63.5085 247.121 62.8602 246.656 62.0604C246.192 61.2689 245.862 60.3681 245.651 59.3661C245.448 58.3642 245.338 57.4044 245.338 56.4866V23.5915H239.785V22.7496C242.616 22.5475 244.924 21.4698 246.724 19.5249C248.524 17.58 249.632 15.273 250.046 12.604C250.097 11.1727 249.877 9.72456 249.387 8.25956C248.896 6.80298 248.22 5.55689 247.341 4.52971C246.31 3.30046 245.025 2.34063 243.487 1.65023C241.94 0.959827 240.3 0.614626 238.551 0.614626C238.035 0.614626 237.646 0.639885 237.393 0.690402C236.26 0.740919 235.229 0.959827 234.308 1.34713C233.378 1.73442 232.583 2.13014 231.916 2.5427C231.248 2.95526 230.707 3.33414 230.293 3.69618C229.879 4.05822 229.625 4.28554 229.524 4.38658C229.473 4.43709 229.278 4.656 228.94 5.0433C228.602 5.4306 228.247 5.95261 227.858 6.61775C227.47 7.2829 227.098 8.06591 226.743 8.95838C226.379 9.85927 226.151 10.8444 226.05 11.9136C226.464 11.3495 226.946 10.8865 227.512 10.5328C228.078 10.1708 228.721 9.99399 229.439 9.99399C230.572 9.99399 231.518 10.3813 232.296 11.1475C233.065 11.9136 233.454 12.865 233.454 13.9933C233.454 15.1215 233.065 16.0055 232.296 16.797C231.527 17.5884 230.572 17.9925 229.439 17.9925C228.509 17.9925 227.689 17.681 226.971 17.0664C226.253 16.5023 225.788 15.7866 225.585 14.911C225.382 14.0438 225.323 13.1681 225.433 12.3009C225.534 10.6086 225.957 9.0089 226.709 7.49338C227.453 5.98629 228.408 4.67284 229.566 3.56988C230.724 2.46692 232.076 1.59971 233.615 0.959827C235.161 0.319942 236.776 0 238.475 0C238.889 0 239.286 0.0168391 239.675 0.0420977C240.064 0.0673563 240.461 0.109454 240.867 0.159971C244.214 0.774597 246.716 2.1554 248.389 4.3108C250.063 6.4662 250.95 9.22781 251.052 12.6125V22.758H259.614L259.622 22.7496Z" fill="#1D1B20"/>
<path d="M302.991 22.8256V23.0529C301.858 23.516 300.793 24.3495 299.788 25.5535C298.782 26.7575 297.886 28.0878 297.083 29.5528C296.288 31.0093 295.578 32.4996 294.961 34.0067C294.344 35.5222 293.829 36.7851 293.415 37.8123L282.917 66.7839C282.038 68.9899 280.998 71.0526 279.789 72.9723C278.581 74.892 277.194 76.559 275.622 77.9651C274.05 79.3711 272.267 80.4909 270.264 81.3076C268.26 82.1243 265.995 82.5369 263.476 82.5369C261.98 82.5369 260.518 82.3685 259.081 82.0401C257.644 81.7034 256.25 81.1814 254.914 80.4657C256.41 77.3926 257.847 74.3699 259.233 71.3979C259.952 73.4438 261.228 75.1361 263.054 76.4664C264.879 77.7967 266.874 78.4618 269.038 78.4618C270.94 78.4618 272.596 78.0409 274.016 77.1905C275.428 76.3485 276.679 75.254 277.761 73.9237C278.843 72.5934 279.764 71.12 280.542 69.5035C281.311 67.8869 282.004 66.3125 282.621 64.7801L267.888 31.1188C267.576 30.4537 267.204 29.6875 266.773 28.8118C266.333 27.9446 265.818 27.1111 265.226 26.3112C264.634 25.5198 263.992 24.8126 263.299 24.1979C262.606 23.5833 261.845 23.196 261.025 23.0445V22.8171H277V22.9687C275.555 23.9959 274.701 25.444 274.414 27.3132C274.135 29.1823 274.659 31.7334 275.994 34.9581L285.714 56.4027C285.765 56.2511 285.909 55.8638 286.137 55.2492C286.365 54.6346 286.636 53.8768 286.948 52.9843C287.261 52.0919 287.608 51.0899 287.988 49.987C288.377 48.884 288.774 47.7726 289.188 46.6444C290.169 43.9838 291.242 41.0118 292.426 37.7281C293.144 35.7327 293.533 33.7289 293.584 31.7334C293.634 30.5547 293.541 29.5191 293.313 28.6182C293.085 27.7257 292.738 26.8922 292.273 26.1176C291.394 24.6358 290.194 23.6086 288.647 23.0445V22.8171H303L302.991 22.8256Z" fill="#1D1B20"/>
<path d="M51.221 82.0485C50.4011 82.5621 49.8095 83.1262 49.446 83.7409C48.8797 84.7175 48.6261 85.8289 48.6768 87.0834C48.7276 88.3379 48.9051 89.5082 49.2178 90.5775C49.4207 91.3437 49.708 92.253 50.063 93.3054C50.4265 94.3579 50.959 95.4945 51.6859 96.7238V98.0288H61.7188V98.795H51.6859V128.844C51.6859 129.77 51.7281 130.806 51.8042 131.96C51.8803 133.113 52.0831 134.216 52.4212 135.26C52.7593 136.312 53.2411 137.247 53.8835 138.064C54.5259 138.88 55.388 139.444 56.4699 139.756V139.983H41.1965V139.756C42.3291 139.444 43.2166 138.889 43.859 138.064C44.5014 137.247 44.9747 136.312 45.2875 135.26C45.6002 134.208 45.7861 133.105 45.8622 131.96C45.9383 130.814 45.9805 129.77 45.9805 128.844V98.795H40.5034V98.0288H45.9805C45.9805 97.6162 45.9636 97.1027 45.9383 96.488C45.9129 95.8734 45.9214 95.2083 45.9805 94.4926C45.9805 93.3644 45.989 92.4298 46.0228 91.6889C46.0482 90.948 46.0904 90.3165 46.1411 89.8029C46.1919 89.2893 46.2426 88.8768 46.2933 88.5737C46.344 88.2621 46.3947 87.9843 46.4454 87.7317C46.4961 87.4202 46.5638 87.1339 46.6398 86.8477C46.7159 86.5698 46.8089 86.2751 46.9103 85.9636C47.7809 83.9177 49.0065 82.419 50.5786 81.4676C52.1508 80.5162 54.0103 80.0447 56.1741 80.0447C58.0251 80.0447 59.8255 80.3646 61.5751 81.0045C63.3248 81.6444 64.9392 82.5032 66.4352 83.5809C65.9196 84.9617 65.404 86.3509 64.8885 87.7317C64.3729 89.1125 63.8573 90.5017 63.3417 91.8825C62.9782 90.8048 62.5049 89.6682 61.9132 88.4642C61.3216 87.2602 60.6116 86.1488 59.7917 85.1217C58.9718 84.0945 58.0251 83.2525 56.9771 82.5874C55.9205 81.9222 54.7541 81.5855 53.4693 81.5855C53.0552 81.5855 52.6748 81.6107 52.3114 81.6612C51.9479 81.7117 51.5929 81.838 51.2295 82.0485H51.221Z" fill="#1D1B20"/>
<path d="M128.383 125.241L124.985 140H84.3965V139.773C85.4784 139.461 86.3405 138.905 86.9829 138.08C87.6253 137.264 88.0986 136.312 88.4114 135.235C88.7241 134.157 88.91 133.054 88.9861 131.926C89.0622 130.797 89.1044 129.77 89.1044 128.853V91.3435C89.1044 90.3668 89.0622 89.3228 88.9861 88.1946C88.91 87.0664 88.7156 85.9887 88.4114 84.9699C88.0986 83.9427 87.6253 83.025 86.9829 82.1999C86.3405 81.3832 85.4784 80.7686 84.3965 80.356V80.1287H99.6699V80.356C96.4833 81.4337 94.8859 85.0962 94.8859 91.3435V139.15H107.691C112.374 139.15 116.465 137.87 119.956 135.31C123.455 132.751 126.151 129.391 128.053 125.241H128.366H128.383Z" fill="#1D1B20"/>
<path d="M145.668 139.764V139.991H130.395V139.764C131.476 139.453 132.339 138.897 132.981 138.072C133.623 137.255 134.097 136.304 134.409 135.226C134.722 134.148 134.908 133.045 134.993 131.917C135.069 130.789 135.111 129.762 135.111 128.844V109.168C135.111 108.25 135.069 107.223 134.993 106.094C134.917 104.966 134.705 103.88 134.376 102.828C134.037 101.775 133.564 100.841 132.947 100.024C132.33 99.2072 131.485 98.6179 130.403 98.2558V98.0285H140.892V128.844C140.892 129.77 140.935 130.806 141.011 131.959C141.087 133.113 141.281 134.216 141.585 135.26C141.898 136.312 142.372 137.247 143.014 138.063C143.656 138.88 144.544 139.444 145.676 139.756L145.668 139.764ZM136.48 93.1873C135.398 93.1873 134.477 92.7916 133.699 91.9917C132.93 91.2003 132.541 90.2657 132.541 89.188C132.541 88.1103 132.93 87.1168 133.699 86.3422C134.469 85.576 135.398 85.1887 136.48 85.1887C137.562 85.1887 138.56 85.576 139.337 86.3422C140.106 87.1084 140.495 88.0598 140.495 89.188C140.495 90.3162 140.106 91.2003 139.337 91.9917C138.568 92.7831 137.613 93.1873 136.48 93.1873Z" fill="#1D1B20"/>
<path d="M159.014 82.0485C158.194 82.5621 157.602 83.1262 157.239 83.7409C156.673 84.7175 156.419 85.8289 156.47 87.0834C156.521 88.3379 156.698 89.5082 157.011 90.5775C157.214 91.3437 157.501 92.253 157.856 93.3054C158.219 94.3579 158.752 95.4945 159.479 96.7238V98.0288H169.512V98.795H159.479V128.844C159.479 129.77 159.521 130.806 159.597 131.96C159.673 133.113 159.876 134.216 160.214 135.26C160.552 136.312 161.034 137.247 161.676 138.064C162.319 138.88 163.181 139.444 164.263 139.756V139.983H148.989V139.756C150.122 139.444 151.01 138.889 151.652 138.064C152.294 137.247 152.768 136.312 153.08 135.26C153.393 134.208 153.579 133.105 153.655 131.96C153.731 130.814 153.774 129.77 153.774 128.844V98.795H148.296V98.0288H153.774C153.774 97.6162 153.757 97.1027 153.731 96.488C153.706 95.8734 153.714 95.2083 153.774 94.4926C153.774 93.3644 153.782 92.4298 153.816 91.6889C153.841 90.948 153.883 90.3165 153.934 89.8029C153.985 89.2893 154.036 88.8768 154.086 88.5737C154.137 88.2621 154.188 87.9843 154.238 87.7317C154.289 87.4202 154.357 87.1339 154.433 86.8477C154.509 86.5698 154.602 86.2751 154.703 85.9636C155.574 83.9177 156.799 82.419 158.372 81.4676C159.944 80.5162 161.803 80.0447 163.967 80.0447C165.818 80.0447 167.618 80.3646 169.368 81.0045C171.118 81.6444 172.732 82.5032 174.228 83.5809C173.713 84.9617 173.197 86.3509 172.681 87.7317C172.166 89.1125 171.65 90.5017 171.135 91.8825C170.771 90.8048 170.298 89.6682 169.706 88.4642C169.115 87.2602 168.405 86.1488 167.585 85.1217C166.765 84.0945 165.818 83.2525 164.77 82.5874C163.713 81.9222 162.547 81.5855 161.262 81.5855C160.848 81.5855 160.468 81.6107 160.104 81.6612C159.741 81.7117 159.386 81.838 159.022 82.0485H159.014Z" fill="#1D1B20"/>
<path d="M207.159 130.309C205.409 133.332 203.211 135.706 200.566 137.415C197.912 139.133 194.818 139.992 191.268 139.992C188.538 139.992 186.045 139.419 183.788 138.266C181.523 137.112 179.587 135.588 177.964 133.694C176.341 131.799 175.082 129.636 174.186 127.202C173.282 124.769 172.808 122.268 172.758 119.709C172.707 118.168 172.8 116.636 173.028 115.095C173.256 113.554 173.654 112.072 174.228 110.641C174.947 108.646 175.877 106.81 177.009 105.143C178.142 103.476 179.452 102.045 180.948 100.841C182.436 99.6368 184.109 98.7022 185.96 98.0371C187.811 97.3719 189.814 97.0352 191.978 97.0352C193.525 97.0352 195.063 97.212 196.61 97.574C198.157 97.936 199.568 98.5507 200.853 99.4179C201.884 100.083 202.772 100.917 203.516 101.918C204.26 102.92 204.826 103.964 205.215 105.067C205.603 106.17 205.806 107.324 205.832 108.528C205.857 109.732 205.637 110.902 205.172 112.022C204.403 113.866 203.178 115.508 201.504 116.939C199.83 118.379 197.971 119.633 195.909 120.702C193.846 121.78 191.716 122.689 189.502 123.43C187.287 124.171 185.259 124.778 183.408 125.241C182.689 125.342 182.03 125.443 181.438 125.552C180.847 125.653 180.272 125.729 179.705 125.779C180.12 127.371 180.694 128.92 181.438 130.427C182.182 131.943 183.12 133.298 184.253 134.502C185.385 135.706 186.67 136.666 188.107 137.382C189.544 138.097 191.167 138.459 192.967 138.459C194.404 138.459 195.782 138.215 197.092 137.727C198.402 137.238 199.636 136.59 200.794 135.765C201.952 134.948 202.992 134.039 203.921 133.037C204.851 132.035 205.62 131.025 206.237 129.998L207.167 130.309H207.159ZM178.691 116.089C178.64 117.629 178.674 119.136 178.809 120.627C178.936 122.117 179.156 123.574 179.469 125.005C179.621 125.005 179.782 124.996 179.934 124.971C180.086 124.946 180.272 124.904 180.475 124.853C182.74 124.542 184.971 124.037 187.186 123.313C189.4 122.597 191.446 121.62 193.322 120.391C195.199 119.162 196.796 117.655 198.106 115.853C199.416 114.059 200.278 111.929 200.693 109.471C200.946 107.989 201.048 106.423 200.997 104.781C200.946 103.139 200.405 101.708 199.374 100.479C198.605 99.6115 197.65 98.9969 196.517 98.6349C195.385 98.2812 194.252 98.096 193.119 98.096C190.651 98.096 188.53 98.6349 186.755 99.7126C184.98 100.79 183.517 102.171 182.359 103.863C181.202 105.556 180.331 107.475 179.739 109.631C179.148 111.786 178.801 113.933 178.7 116.089H178.691Z" fill="#1D1B20"/>
<path d="M0 119.212C0 119.431 0.0929759 119.642 0.262023 119.785C1.53833 120.896 3.03439 121.78 4.64034 122.386C3.38939 123.565 2.34975 124.954 1.59749 126.461C1.49607 126.655 1.48761 126.891 1.57214 127.093C1.65666 127.295 1.82571 127.455 2.03702 127.522C3.50773 128.019 5.07986 128.263 6.652 128.263C6.79569 128.263 6.93938 128.263 7.08307 128.263C6.38153 129.829 5.95046 131.505 5.83212 133.189C5.81522 133.408 5.89974 133.626 6.05188 133.778C6.19557 133.921 6.38998 134.005 6.59283 134.005C6.60974 134.005 6.62664 134.005 6.64355 134.005C8.33402 133.887 10.016 133.466 11.5882 132.759C11.5375 134.477 11.791 136.186 12.332 137.786C12.3996 137.996 12.5602 138.165 12.7631 138.249C12.856 138.291 12.9575 138.308 13.0589 138.308C13.1772 138.308 13.2955 138.282 13.397 138.232C14.9099 137.483 16.3046 136.447 17.4879 135.201C18.0965 136.801 18.9924 138.291 20.0997 139.562C20.2434 139.731 20.4547 139.823 20.6745 139.823C20.8942 139.823 21.1055 139.731 21.2492 139.562C22.3649 138.291 23.2524 136.801 23.861 135.201C25.0443 136.447 26.439 137.483 27.9519 138.232C28.0618 138.282 28.1801 138.308 28.29 138.308C28.3915 138.308 28.4929 138.291 28.5859 138.249C28.7887 138.165 28.9493 137.996 29.0169 137.786C29.5579 136.186 29.8114 134.468 29.7607 132.759C31.3329 133.458 33.0149 133.887 34.7054 134.005C34.7223 134.005 34.7392 134.005 34.7561 134.005C34.9589 134.005 35.1533 133.93 35.297 133.778C35.4576 133.618 35.5337 133.408 35.5168 133.189C35.3984 131.505 34.9758 129.829 34.2658 128.263C34.4095 128.263 34.5532 128.263 34.6969 128.263C36.2775 128.263 37.8412 128.011 39.3119 127.522C39.5232 127.455 39.6922 127.295 39.7768 127.093C39.8613 126.891 39.8528 126.655 39.7514 126.461C38.9991 124.954 37.9595 123.565 36.7086 122.386C38.3145 121.78 39.8106 120.888 41.0869 119.785C41.2559 119.642 41.3489 119.431 41.3489 119.212C41.3489 118.993 41.2559 118.783 41.0869 118.64C39.8106 117.528 38.3145 116.644 36.7086 116.038C37.9595 114.859 38.9991 113.47 39.7514 111.963C39.8528 111.769 39.8613 111.534 39.7768 111.332C39.6922 111.129 39.5232 110.97 39.3119 110.902C37.7059 110.363 35.9817 110.119 34.2658 110.161C34.9674 108.595 35.3984 106.92 35.5168 105.236C35.5337 105.017 35.4492 104.798 35.297 104.646C35.1364 104.486 34.9251 104.411 34.7054 104.428C33.0149 104.545 31.3329 104.966 29.7607 105.674C29.8114 103.956 29.5579 102.247 29.0169 100.647C28.9493 100.437 28.7887 100.268 28.5859 100.184C28.383 100.1 28.1463 100.108 27.9519 100.209C26.439 100.959 25.0443 101.994 23.861 103.24C23.2524 101.641 22.3565 100.15 21.2492 98.8791C21.1055 98.7107 20.8942 98.618 20.6745 98.618C20.4547 98.618 20.2434 98.7107 20.0997 98.8791C18.984 100.15 18.0965 101.641 17.4879 103.24C16.3046 101.994 14.9099 100.959 13.397 100.209C13.2026 100.108 12.9659 100.1 12.7631 100.184C12.5602 100.268 12.3996 100.437 12.332 100.647C11.791 102.247 11.5459 103.964 11.5882 105.674C10.016 104.975 8.33402 104.545 6.64355 104.428C6.42379 104.411 6.20403 104.495 6.05188 104.646C5.89129 104.806 5.81522 105.017 5.83212 105.236C5.95046 106.92 6.37307 108.595 7.08307 110.161C5.35879 110.111 3.64296 110.363 2.03702 110.902C1.82571 110.97 1.65666 111.129 1.57214 111.332C1.48761 111.534 1.49607 111.769 1.59749 111.963C2.34975 113.47 3.38939 114.859 4.64034 116.038C3.03439 116.644 1.53833 117.537 0.262023 118.64C0.0929759 118.783 0 118.993 0 119.212ZM7.91985 111.736C8.55378 112.78 9.31449 113.748 10.1851 114.615C10.3457 114.775 10.4978 114.927 10.6669 115.07C10.4471 115.061 10.2273 115.053 10.0076 115.053C8.77354 115.053 7.54795 115.205 6.35617 115.491C5.18129 114.523 4.17546 113.361 3.41475 112.072C4.86855 111.702 6.40688 111.584 7.91985 111.727V111.736ZM7.46343 106.036C8.95104 106.246 10.4133 106.726 11.7572 107.433C11.9432 108.637 12.2728 109.824 12.7461 110.961C12.8307 111.163 12.9236 111.365 13.0166 111.567C12.8138 111.475 12.6109 111.382 12.4081 111.298C11.267 110.826 10.0752 110.498 8.86652 110.313C8.14807 108.974 7.67474 107.509 7.46343 106.036ZM16.9639 104.924C16.668 106.103 16.5243 107.324 16.5243 108.562C16.5243 108.78 16.5243 108.999 16.5413 109.218C16.3891 109.058 16.237 108.898 16.0848 108.738C15.2058 107.863 14.2422 107.105 13.1941 106.482C13.0504 104.966 13.1688 103.442 13.5407 101.994C14.8339 102.752 16.0003 103.754 16.9723 104.924H16.9639ZM22.7368 104.596C22.0099 105.573 21.4098 106.65 20.9365 107.787C20.852 107.989 20.7674 108.199 20.6998 108.402C20.6237 108.191 20.5477 107.989 20.4631 107.787C19.9898 106.65 19.3812 105.573 18.6628 104.596C19.1108 103.148 19.8039 101.775 20.7083 100.58C21.6127 101.775 22.3058 103.148 22.7537 104.596H22.7368ZM28.197 106.482C27.149 107.113 26.1769 107.871 25.3063 108.738C25.1457 108.898 24.9936 109.05 24.8499 109.218C24.8584 108.999 24.8668 108.78 24.8668 108.562C24.8668 107.332 24.7147 106.111 24.4273 104.924C25.3993 103.754 26.5657 102.752 27.8589 101.994C28.2309 103.442 28.3492 104.975 28.2055 106.482H28.197ZM33.9193 106.036C33.708 107.517 33.2262 108.974 32.5162 110.313C31.3075 110.498 30.1157 110.826 28.9747 111.298C28.7718 111.382 28.569 111.475 28.3661 111.567C28.4591 111.365 28.552 111.163 28.6366 110.961C29.1099 109.824 29.4395 108.637 29.6255 107.433C30.9694 106.718 32.4401 106.246 33.9193 106.036ZM35.035 115.499C33.8517 115.205 32.6261 115.061 31.3836 115.061C31.1638 115.061 30.9441 115.061 30.7243 115.078C30.8849 114.927 31.0455 114.775 31.2061 114.624C32.0851 113.748 32.8458 112.788 33.4713 111.744C34.9927 111.601 36.5226 111.719 37.9764 112.089C37.2157 113.377 36.2099 114.539 35.035 115.508V115.499ZM39.4049 119.212C38.2046 120.113 36.8269 120.804 35.3731 121.25C34.3926 120.526 33.3107 119.928 32.1697 119.456C31.9668 119.372 31.7555 119.288 31.5526 119.221C31.7639 119.145 31.9668 119.069 32.1697 118.985C33.3107 118.513 34.3926 117.907 35.3731 117.192C36.8269 117.638 38.2046 118.328 39.4049 119.229V119.212ZM33.4713 126.689C32.8374 125.645 32.0767 124.677 31.2061 123.809C31.0455 123.649 30.8933 123.498 30.7243 123.355C30.9441 123.363 31.1638 123.371 31.3836 123.371C32.6176 123.371 33.8432 123.22 35.035 122.934C36.2099 123.902 37.2157 125.064 37.9764 126.352C36.5226 126.722 34.9843 126.84 33.4713 126.697V126.689ZM33.9193 132.389C32.4317 132.178 30.9694 131.698 29.6255 130.991C29.4395 129.787 29.1099 128.6 28.6366 127.463C28.552 127.261 28.4591 127.059 28.3661 126.857C28.569 126.95 28.7718 127.042 28.9747 127.127C30.1157 127.598 31.3075 127.926 32.5162 128.112C33.2346 129.45 33.708 130.915 33.9193 132.389ZM24.4188 133.5C24.7147 132.321 24.8584 131.101 24.8584 129.863C24.8584 129.644 24.8584 129.425 24.8415 129.206C24.9936 129.366 25.1457 129.526 25.2979 129.686C26.1769 130.562 27.1405 131.32 28.1886 131.943C28.3323 133.458 28.2139 134.982 27.842 136.43C26.5488 135.672 25.3824 134.67 24.4104 133.5H24.4188ZM18.6459 133.837C19.3728 132.86 19.9729 131.783 20.4462 130.646C20.5308 130.444 20.6153 130.233 20.6829 130.031C20.759 130.242 20.835 130.444 20.9196 130.646C21.3929 131.783 22.0015 132.86 22.7199 133.837C22.2719 135.285 21.5789 136.657 20.6745 137.853C19.7701 136.657 19.077 135.285 18.629 133.837H18.6459ZM13.1857 131.943C14.2338 131.311 15.2058 130.553 16.0764 129.686C16.237 129.526 16.3891 129.375 16.5328 129.206C16.5243 129.425 16.5159 129.644 16.5159 129.863C16.5159 131.092 16.668 132.313 16.9554 133.5C15.9834 134.67 14.817 135.672 13.5238 136.43C13.1519 134.982 13.0335 133.45 13.1772 131.943H13.1857ZM7.46343 132.389C7.67474 130.907 8.15652 129.45 8.86652 128.112C10.0752 127.926 11.267 127.598 12.4081 127.127C12.6109 127.042 12.8138 126.95 13.0166 126.857C12.9236 127.059 12.8307 127.261 12.7461 127.463C12.2728 128.6 11.9432 129.787 11.7572 130.991C10.4133 131.707 8.94259 132.178 7.46343 132.389ZM6.34772 122.925C7.53105 123.22 8.75664 123.363 9.99913 123.363C10.2189 123.363 10.4387 123.363 10.6584 123.346C10.4978 123.498 10.3372 123.649 10.1766 123.801C9.29759 124.676 8.53687 125.636 7.9114 126.68C6.38998 126.823 4.8601 126.706 3.4063 126.335C4.16701 125.047 5.17284 123.885 6.34772 122.917V122.925ZM1.9863 119.212C3.18654 118.311 4.56427 117.621 6.02653 117.175C7.11688 117.949 8.31711 118.471 9.48354 118.968C10.016 119.195 10.5654 119.44 11.0895 119.692C12.8898 120.576 14.6817 121.704 16.3553 122.791C17.5133 123.548 18.7558 123.969 19.956 124.02C20.0236 124.02 20.0997 124.02 20.1673 124.02C21.4943 124.02 22.6861 123.531 23.6243 122.605C25.7121 120.526 25.7121 117.133 23.6243 115.045C22.8974 114.32 21.9423 113.925 20.9111 113.925C19.8799 113.925 18.9248 114.32 18.1979 115.045C17.471 115.769 17.0738 116.72 17.0738 117.747C17.0738 118.774 17.471 119.726 18.1979 120.45C18.3501 120.601 18.5445 120.677 18.7389 120.677C18.9333 120.677 19.1277 120.601 19.2798 120.45C19.5756 120.155 19.5756 119.667 19.2798 119.372C18.8487 118.943 18.6036 118.362 18.6036 117.756C18.6036 117.149 18.8403 116.568 19.2798 116.139C19.7109 115.71 20.2941 115.466 20.9027 115.466C21.5112 115.466 22.0944 115.701 22.5255 116.139C24.0216 117.629 24.0216 120.046 22.5255 121.536C20.9703 123.085 18.7473 122.546 17.1836 121.528C15.4763 120.416 13.6336 119.254 11.7572 118.337C11.1994 118.067 10.6331 117.823 10.0837 117.579C9.43283 117.301 8.7989 117.023 8.19878 116.712C8.79045 116.636 9.39902 116.594 9.99913 116.594C11.1317 116.594 12.2559 116.728 13.3378 117.006C13.7097 117.099 14.0901 116.905 14.2338 116.56C14.3774 116.206 14.2422 115.811 13.921 115.609C12.9575 115.036 12.07 114.346 11.267 113.546C10.819 113.1 10.3964 112.62 10.016 112.115C10.6246 112.275 11.2332 112.477 11.8164 112.721C12.8645 113.15 13.845 113.706 14.7494 114.371C14.8846 114.472 15.0452 114.523 15.2058 114.523C15.4002 114.523 15.603 114.447 15.7467 114.295C16.0172 114.026 16.0426 113.605 15.8228 113.302C15.1551 112.409 14.5972 111.424 14.1661 110.38C13.921 109.791 13.7182 109.193 13.5576 108.587C14.0647 108.966 14.538 109.378 14.9945 109.833C15.7974 110.633 16.4905 111.517 17.0653 112.477C17.209 112.712 17.4626 112.847 17.7246 112.847C17.826 112.847 17.919 112.83 18.0204 112.788C18.3754 112.645 18.5614 112.266 18.4684 111.896C18.1979 110.818 18.0542 109.698 18.0542 108.57C18.0542 107.938 18.0965 107.299 18.1895 106.676C18.5107 107.223 18.7896 107.787 19.0347 108.376C19.4658 109.42 19.7701 110.506 19.9306 111.609C19.9898 111.988 20.311 112.258 20.6914 112.258C21.0717 112.258 21.3929 111.98 21.4521 111.609C21.6127 110.506 21.9169 109.42 22.348 108.376C22.5931 107.787 22.8721 107.223 23.1933 106.676C23.2778 107.299 23.3285 107.93 23.3285 108.57C23.3285 109.698 23.1933 110.818 22.9143 111.896C22.8214 112.266 23.0158 112.645 23.3623 112.788C23.4553 112.83 23.5567 112.847 23.6581 112.847C23.9202 112.847 24.1737 112.712 24.3174 112.477C24.8922 111.517 25.5853 110.633 26.3882 109.833C26.8362 109.387 27.318 108.966 27.8251 108.587C27.6645 109.193 27.4617 109.799 27.2166 110.38C26.7855 111.424 26.2276 112.401 25.5599 113.302C25.3317 113.605 25.3655 114.026 25.636 114.295C25.7881 114.447 25.9825 114.523 26.1769 114.523C26.3375 114.523 26.4981 114.472 26.6334 114.371C27.5293 113.706 28.5182 113.15 29.5663 112.721C30.158 112.477 30.7581 112.275 31.3667 112.115C30.9863 112.62 30.5722 113.091 30.1157 113.546C29.3128 114.346 28.4253 115.036 27.4617 115.609C27.132 115.802 27.0053 116.206 27.149 116.56C27.2926 116.914 27.673 117.099 28.0449 117.006C29.1268 116.737 30.251 116.594 31.3836 116.594C32.0175 116.594 32.6599 116.636 33.2854 116.728C32.736 117.048 32.1697 117.326 31.578 117.57C30.5299 118 29.4395 118.303 28.3323 118.463C27.9519 118.522 27.6815 118.842 27.6815 119.221C27.6815 119.6 27.9604 119.919 28.3323 119.978C29.4395 120.138 30.5299 120.441 31.578 120.871C32.1697 121.115 32.736 121.393 33.2854 121.713C32.6599 121.797 32.026 121.848 31.3836 121.848C30.251 121.848 29.1268 121.713 28.0449 121.435C27.673 121.342 27.2926 121.536 27.149 121.881C27.0053 122.235 27.1405 122.631 27.4617 122.833C28.4253 123.405 29.3128 124.096 30.1157 124.895C30.5637 125.342 30.9863 125.822 31.3667 126.327C30.7581 126.167 30.1495 125.965 29.5579 125.721C28.5098 125.291 27.5293 124.735 26.6249 124.07C26.3206 123.843 25.898 123.877 25.6275 124.146C25.3571 124.415 25.3317 124.836 25.5515 125.14C26.2192 126.032 26.777 127.017 27.2081 128.061C27.4532 128.651 27.6561 129.248 27.8167 129.855C27.3095 129.476 26.8362 129.063 26.3798 128.608C25.5768 127.809 24.8837 126.925 24.309 125.965C24.1146 125.636 23.7088 125.51 23.3538 125.653C22.9988 125.796 22.8129 126.175 22.9059 126.546C23.1763 127.623 23.32 128.743 23.32 129.871C23.32 130.503 23.2778 131.143 23.1848 131.766C22.8636 131.218 22.5847 130.654 22.3396 130.065C21.9085 129.021 21.6042 127.935 21.4436 126.832C21.3845 126.453 21.0633 126.184 20.6829 126.184C20.3025 126.184 19.9814 126.461 19.9222 126.832C19.7616 127.935 19.4573 129.021 19.0262 130.065C18.7811 130.654 18.5022 131.218 18.181 131.766C18.0965 131.143 18.0458 130.511 18.0458 129.871C18.0458 128.743 18.181 127.623 18.4599 126.546C18.5529 126.175 18.3585 125.796 18.012 125.653C17.657 125.51 17.2597 125.645 17.0568 125.965C16.4821 126.925 15.789 127.809 14.986 128.608C14.538 129.055 14.0563 129.476 13.5491 129.855C13.7097 129.248 13.9126 128.642 14.1577 128.061C14.5888 127.017 15.1466 126.04 15.8143 125.14C16.0426 124.836 16.0088 124.415 15.7383 124.146C15.4678 123.877 15.0452 123.851 14.7409 124.07C13.845 124.735 12.856 125.291 11.8079 125.721C11.2163 125.965 10.6162 126.167 10.0076 126.327C10.3879 125.822 10.8021 125.35 11.2585 124.895C12.0615 124.096 12.949 123.405 13.9126 122.833C14.2422 122.639 14.369 122.235 14.2253 121.881C14.0816 121.528 13.7013 121.342 13.3294 121.435C12.2475 121.704 11.1233 121.848 9.99068 121.848C8.75664 121.848 7.5395 121.688 6.36462 121.359C4.77558 120.921 3.27106 120.189 1.9694 119.221L1.9863 119.212Z" fill="#1D1B20"/>
</svg>
