<svg xmlns="http://www.w3.org/2000/svg" width="520" height="340" viewBox="0 0 520 340">
  <rect width="520" height="340" fill="none"/>
  <g fill="none" stroke-linecap="round" stroke-linejoin="round">
    <g stroke="#b65e45" stroke-width="4" opacity=".17">
      <path d="M64 74c34-30 86-10 88 33 2 42-49 63-77 34-21-22-10-55 19-61 22-4 41 14 36 35-4 17-25 24-38 12-9-9-5-24 8-27"/>
      <path d="M386 248c-27 29-74 16-78-22-4-36 38-59 66-38 20 15 20 44-1 58-16 11-39 3-45-15-5-14 6-29 21-29"/>
    </g>
    <g stroke="#d86986" stroke-width="3" opacity=".16">
      <path d="M246 65c14 21 13 40 0 58-13-18-14-37 0-58Z"/>
      <path d="M222 92c24 3 38 16 44 38-25-1-40-13-44-38Z"/>
      <path d="M270 92c-24 3-38 16-44 38 25-1 40-13 44-38Z"/>
      <path d="M202 134c31 18 61 18 92 0"/>
      <path d="M432 44c9 14 9 27 0 39-9-12-9-25 0-39Z"/>
      <path d="M412 63c18 3 29 12 34 29-19-1-31-10-34-29Z"/>
      <path d="M452 63c-18 3-29 12-34 29 19-1 31-10 34-29Z"/>
    </g>
    <g stroke="#0d7691" stroke-width="3" opacity=".13">
      <path d="M22 210c36-22 72-22 108 0s72 22 108 0 72-22 108 0 72 22 108 0"/>
      <path d="M-8 282c44-24 88-24 132 0s88 24 132 0 88-24 132 0 88 24 132 0"/>
      <path d="M304 92c32-18 64-18 96 0 22 13 43 13 65 0"/>
    </g>
    <g stroke="#d5a642" stroke-width="3" opacity=".16">
      <path d="M44 254l26 26 26-26 26 26-26 26-26-26-26 26-26-26 26-26Z"/>
      <path d="M324 28l20 20 20-20 20 20-20 20-20-20-20 20-20-20 20-20Z"/>
      <path d="M414 154l18 18 18-18 18 18-18 18-18-18-18 18-18-18 18-18Z"/>
    </g>
    <g stroke="#0d4a34" stroke-width="3" opacity=".12">
      <path d="M156 246c18-18 38-18 56 0-18 18-38 18-56 0Z"/>
      <path d="M176 224c14 16 14 30 0 44-14-14-14-28 0-44Z"/>
      <path d="M58 152c18-18 38-18 56 0-18 18-38 18-56 0Z"/>
      <path d="M78 130c14 16 14 30 0 44-14-14-14-28 0-44Z"/>
    </g>
  </g>
</svg>
